<?xml version="1.0" encoding="UTF-8" standalone="no"?>
<!-- Created with Inkscape (http://www.inkscape.org/) -->

<svg
   xmlns:dc="http://purl.org/dc/elements/1.1/"
   xmlns:cc="http://creativecommons.org/ns#"
   xmlns:rdf="http://www.w3.org/1999/02/22-rdf-syntax-ns#"
   xmlns:svg="http://www.w3.org/2000/svg"
   xmlns="http://www.w3.org/2000/svg"
   xmlns:sodipodi="http://sodipodi.sourceforge.net/DTD/sodipodi-0.dtd"
   xmlns:inkscape="http://www.inkscape.org/namespaces/inkscape"
   width="70.374092mm"
   height="42.28429mm"
   viewBox="0 0 70.374092 42.28429"
   version="1.1"
   id="svg8"
   inkscape:version="0.92.2 (5c3e80d, 2017-08-06)"
   sodipodi:docname="mothyplayerlogo2.svg">
  <defs
     id="defs2">
    <inkscape:perspective
       sodipodi:type="inkscape:persp3d"
       inkscape:vp_x="0 : 148.5 : 1"
       inkscape:vp_y="0 : 999.99999 : 0"
       inkscape:vp_z="209.99999 : 148.5 : 1"
       inkscape:persp3d-origin="105 : 98.999999 : 1"
       id="perspective4508" />
  </defs>
  <sodipodi:namedview
     id="base"
     pagecolor="#ffffff"
     bordercolor="#666666"
     borderopacity="1.0"
     inkscape:pageopacity="0.0"
     inkscape:pageshadow="2"
     inkscape:zoom="1.42"
     inkscape:cx="93.270498"
     inkscape:cy="-4.6287158"
     inkscape:document-units="mm"
     inkscape:current-layer="layer1"
     showgrid="false"
     inkscape:pagecheckerboard="true"
     inkscape:window-width="1366"
     inkscape:window-height="705"
     inkscape:window-x="-8"
     inkscape:window-y="-8"
     inkscape:window-maximized="1" />
  <metadata
     id="metadata5">
    <rdf:RDF>
      <cc:Work
         rdf:about="">
        <dc:format>image/svg+xml</dc:format>
        <dc:type
           rdf:resource="http://purl.org/dc/dcmitype/StillImage" />
        <dc:title />
      </cc:Work>
    </rdf:RDF>
  </metadata>
  <g
     inkscape:label="Layer 1"
     inkscape:groupmode="layer"
     id="layer1"
     transform="translate(-0.22668073,-0.3305484)">
    <g
       style="font-style:normal;font-weight:normal;font-size:10.58333302px;line-height:1.25;font-family:sans-serif;letter-spacing:0px;word-spacing:0px;fill:#000000;fill-opacity:1;stroke:none;stroke-width:0.26458332"
       id="text817" />
    <g
       transform="matrix(1.9054657,0,0,1.6486237,0.2286979,-5.1083596)"
       id="g4550" />
    <path
       inkscape:connector-curvature="0"
       style="fill:#ffffff;stroke-width:1.77239823"
       d="M 26.360218,5.2548844 V 37.285996 q 0,0.764964 -0.646,1.325494 -0.646,0.560542 -1.53203,0.55886 -0.88603,-0.0017 -1.53196,-0.55886 L 11.320348,28.808776 H 2.4046379 q -0.88409,0 -1.53196,-0.55886 -0.64815,-0.55886 -0.64599,-1.325493 V 15.61981 q 0,-0.764964 0.64599,-1.325494 0.646,-0.560542 1.53196,-0.55886 h 8.9157101 l 11.32988,-9.8027126 q 0.646,-0.558861 1.53203,-0.558861 0.88603,0 1.53196,0.558861 0.646,0.55886 0.646,1.325493 z m 13.06579,16.0147326 q 0,2.237185 -1.44626,4.166072 -1.44625,1.928893 -3.82802,2.753201 -0.34136,0.14674 -0.84988,0.14674 -0.88416,0 -1.53196,-0.54403 -0.64816,-0.54403 -0.646,-1.34033 0,-0.618241 0.40762,-1.045228 0.40762,-0.427012 0.98708,-0.735291 0.57902,-0.308311 1.1566,-0.67758 0.57758,-0.369313 0.987,-1.045229 0.40978,-0.675934 0.40762,-1.6783 -0.002,-1.002365 -0.40762,-1.6783 -0.40546,-0.675934 -0.987,-1.045228 -0.58118,-0.369312 -1.1566,-0.67758 -0.57542,-0.30831 -0.98708,-0.735291 -0.41194,-0.427012 -0.40762,-1.045222 0,-0.794642 0.646,-1.340336 0.646,-0.545713 1.53196,-0.54403 0.51061,0 0.84988,0.14674 2.38177,0.794636 3.82802,2.738365 1.44626,1.943729 1.44626,4.180907 z m 8.71183,0 q 0,4.504043 -2.89252,8.317308 -2.89251,3.813265 -7.65619,5.549264 -0.44219,0.14674 -0.84981,0.14674 -0.91844,0 -1.56436,-0.55886 -0.646,-0.55886 -0.646,-1.325493 0,-1.147442 1.3262,-1.737644 1.90552,-0.853986 2.58572,-1.295822 2.51716,-1.589271 3.93101,-3.989665 1.41385,-2.4004 1.41191,-5.107441 -0.002,-2.707035 -1.41191,-5.107436 -1.41003,-2.400394 -3.93101,-3.989665 -0.67984,-0.441841 -2.58572,-1.295821 -1.3262,-0.588582 -1.3262,-1.7376506 0,-0.764957 0.646,-1.325493 0.64599,-0.560542 1.53196,-0.55886 0.44218,0 0.88416,0.14674 4.76367,1.737651 7.65611,5.5492706 2.89252,3.811614 2.89252,8.317307 z m 8.709884,0 q 0,6.7709 -4.321634,12.438865 -4.32156,5.667971 -11.50136,8.346985 -0.44219,0.146741 -0.88416,0.146741 -0.88416,0 -1.53196,-0.55886 -0.64816,-0.55886 -0.646,-1.325494 0,-1.060064 1.32621,-1.73765 0.23838,-0.117081 0.76598,-0.309931 0.52789,-0.192912 0.76605,-0.309931 1.56437,-0.735285 2.7896,-1.501894 4.18437,-2.679014 6.5338,-6.683521 2.34943,-4.004508 2.34756,-8.508543 -0.002,-4.504042 -2.34756,-8.50855 -2.34562,-4.0045066 -6.5338,-6.6835206 -1.22523,-0.764958 -2.7896,-1.501894 -0.23838,-0.117081 -0.76605,-0.309931 -0.52789,-0.192912 -0.76598,-0.309931 -1.32621,-0.677586 -1.32621,-1.73765 0,-0.764964 0.646,-1.32549397 0.646,-0.560542 1.53196,-0.55886 0.44219,0 0.88416,0.146741 7.1798,2.67901397 11.50136,8.34697897 4.321634,5.6679706 4.321634,12.4388696 z"
       id="path4552" />
    <g
       style="font-style:normal;font-variant:normal;font-weight:normal;font-stretch:normal;font-size:10.58333302px;line-height:1.25;font-family:'Old London';-inkscape-font-specification:'Old London';letter-spacing:0px;word-spacing:0px;fill:#000000;fill-opacity:1;stroke:none;stroke-width:0.26458332"
       id="text5678" />
    <g
       aria-label="Mothy"
       transform="scale(0.95531486,1.0467753)"
       style="font-style:normal;font-variant:normal;font-weight:normal;font-stretch:normal;font-size:23.03273201px;line-height:1.25;font-family:'Old London';-inkscape-font-specification:'Old London';letter-spacing:0px;word-spacing:0px;fill:#808080;fill-opacity:1;stroke:none;stroke-width:0.35988644"
       id="text5682">
      <path
         d="m 40.781715,30.095031 -0.299426,-0.299426 q -0.276392,0.322459 -0.50672,0.322459 -0.552785,0 -0.552785,-1.243768 v -8.959733 q 0,-0.529752 0.276392,-1.059505 0.09213,-0.161229 0.230328,-0.368524 0.161229,-0.230327 0.391556,-0.552786 l -0.25336,-0.184261 -0.898276,0.667949 -2.395405,-1.635324 -3.8004,2.441469 q -0.299426,-1.52016 -1.819586,-2.510567 l -4.122859,2.234175 q -2.763928,1.497127 -2.763928,5.205397 -1.105571,0.138196 -1.704422,0.598851 -0.575819,0.437622 -0.806146,1.474095 0.829179,-0.276393 1.220735,-0.276393 0.437622,0 0.783113,0.161229 0.414589,0.138197 0.737047,0.414589 0.345491,0.276393 0.575819,0.644917 0.25336,0.368524 0.368523,0.829178 0.138197,0.437622 0.138197,0.875244 0,0.529753 -0.25336,1.105571 -0.368524,0.644917 -2.786961,1.17467 -1.865651,0.391556 -1.865651,2.625731 h 0.138196 q 0.552786,-1.01344 1.658357,-1.01344 0.115164,0 0.230327,0 0.138197,0.02303 0.299426,0.04607 0.875244,0.115164 1.358931,0.184262 0.483687,0.0691 0.529753,0.0691 0.829178,0 1.589258,-0.483687 1.520161,-0.921309 1.520161,-3.20155 v -4.307121 h 2.5336 l 0.02303,3.777368 q 0,0.276393 -0.184262,0.529753 -0.04607,0.04607 -0.138196,0.161229 -0.09213,0.09213 -0.253361,0.207295 v 0.184262 q 0.506721,0.391556 1.082539,0.921309 0.575818,0.529753 1.243767,1.243768 l 3.45491,-3.063354 -0.322458,-0.368523 -0.529753,0.391556 v -3.984663 l 1.197702,-1.681389 h -1.174669 v -4.836874 l 0.460655,-0.230327 1.658356,1.220735 0.02303,9.719813 q 0,2.188109 1.681389,2.833026 z m -6.334002,-6.702525 h -1.474094 l -0.02303,-3.45491 1.497127,-1.01344 z m -3.892531,-3.984663 -0.02303,3.984663 h -1.635324 l -0.921309,1.358931 V 20.81284 q 0,-1.358931 1.128604,-2.418437 1.451062,0 1.451062,1.01344 z m 3.892531,10.042271 -0.737047,0.66795 q -0.76008,-0.299426 -0.76008,-1.17467 l 0.02303,-3.869499 h 1.474094 z m -6.49523,-10.341696 q -0.391556,0.829178 -0.391556,1.566225 v 8.568177 q 0,1.796553 -1.451062,1.796553 -0.322459,0 -0.944343,-0.207295 1.404997,-0.783113 1.404997,-2.78696 v -6.172772 q 0,-1.013441 0.276393,-1.612292 0.276393,-0.598851 1.036473,-1.220734 z"
         style="font-style:normal;font-variant:normal;font-weight:normal;font-stretch:normal;font-size:23.03273201px;font-family:'Old London';-inkscape-font-specification:'Old London';stroke-width:0.35988644;fill:#808080"
         id="path5151"
         inkscape:connector-curvature="0" />
      <path
         d="m 49.078896,30.233227 v -7.50867 q -1.497128,-0.207295 -3.662204,-1.612292 -1.42803,1.335899 -3.270648,1.842619 v 5.458757 q 0,1.266801 -0.621884,1.773521 2.326306,0.483687 4.145892,1.819586 1.381964,-1.17467 3.408844,-1.773521 z m -2.165077,-0.04606 q -0.414589,-0.115164 -1.01344,-0.345491 -0.437622,-0.161229 -0.852211,-0.322458 -0.391556,-0.16123 -0.783113,-0.322459 V 22.83972 l 2.648764,1.013441 z"
         style="font-style:normal;font-variant:normal;font-weight:normal;font-stretch:normal;font-size:23.03273201px;font-family:'Old London';-inkscape-font-specification:'Old London';stroke-width:0.35988644;fill:#808080"
         id="path5153"
         inkscape:connector-curvature="0" />
      <path
         d="m 55.682811,22.609393 v -1.174669 h -2.349338 l -0.02303,-2.925157 -2.994255,3.754335 -0.02303,0.322458 h 0.806146 v 5.942445 q 0,1.01344 -0.621884,1.658357 1.2668,0.437622 2.902124,1.750487 l 2.072946,-1.796553 -0.25336,-0.322458 -0.644917,0.50672 -1.220734,-1.01344 v -6.702525 z"
         style="font-style:normal;font-variant:normal;font-weight:normal;font-stretch:normal;font-size:23.03273201px;font-family:'Old London';-inkscape-font-specification:'Old London';stroke-width:0.35988644;fill:#808080"
         id="path5155"
         inkscape:connector-curvature="0" />
      <path
         d="m 64.751231,29.473147 v -5.619986 q 0,-1.68139 -1.52016,-2.69483 l -3.224583,2.372371 v -4.076793 q 0,-1.243768 0.990408,-2.095979 -1.197702,0 -2.211143,1.151637 l -0.345491,0.02303 q -0.575818,-0.437621 -1.428029,-0.76008 l -0.04606,0.04607 q 0.829178,0.76008 0.829178,2.303273 v 1.358931 h -1.174669 v 1.128604 h 1.128603 v 7.209245 l -0.667949,0.783113 1.727455,1.404997 1.750488,-1.520161 -0.598851,-0.667949 v -5.689085 l 1.819586,-1.358931 q 0.737047,0.460655 0.875243,1.082539 v 6.449164 q 0,1.658357 -1.220734,2.556634 -0.322459,0.230327 -1.036473,0.552785 -0.690982,0.345491 -1.819586,0.783113 l 0.0691,0.138197 q 2.395404,-0.460655 3.96163,-1.497128 2.142044,-1.335898 2.142044,-3.362779 z"
         style="font-style:normal;font-variant:normal;font-weight:normal;font-stretch:normal;font-size:23.03273201px;font-family:'Old London';-inkscape-font-specification:'Old London';stroke-width:0.35988644;fill:#808080"
         id="path5157"
         inkscape:connector-curvature="0" />
      <path
         d="m 73.903142,24.77447 q 0,-2.165077 -1.404997,-3.639172 l -3.109419,2.44147 q 0,-1.68139 -1.474094,-2.464503 l -2.211143,1.93475 0.25336,0.299425 0.737048,-0.529752 q 0.552785,0.529752 0.552785,1.082538 V 30.0029 q 0,0.299425 -0.921309,1.497128 -0.898276,1.220734 -0.898276,1.911716 v 0.184262 q 0.138196,1.312866 2.349338,1.312866 h 0.322458 q 0.506721,0 1.312866,-0.25336 0.990408,-0.299426 0.990408,-0.806146 -0.04607,-0.161229 -0.04607,-0.184262 -0.09213,-0.161229 -0.276393,-0.161229 -0.299425,0 -0.967374,0.598851 -0.529753,0.391557 -1.42803,0.391557 -0.667949,0 -1.174669,-0.25336 -0.621884,-0.299426 -0.621884,-0.944342 l -0.02303,-0.115164 q 0,-0.783113 1.566226,-1.796553 0.667949,-0.368524 1.197702,-0.644917 0.529753,-0.299425 0.92131,-0.50672 1.865651,-0.944342 2.994255,-2.188109 1.358931,-1.497128 1.358932,-3.270648 z m -1.93475,0.644916 q 0,1.220735 -0.829178,2.487535 -0.76008,1.105571 -1.819586,1.911717 v -5.643019 l 1.566226,-1.220735 q 1.082538,0.944342 1.082538,2.464502 z"
         style="font-style:normal;font-variant:normal;font-weight:normal;font-stretch:normal;font-size:23.03273201px;font-family:'Old London';-inkscape-font-specification:'Old London';stroke-width:0.35988644;fill:#808080"
         id="path5159"
         inkscape:connector-curvature="0" />
    </g>
    <g
       aria-label="Player"
       transform="scale(1.0052861,0.9947417)"
       style="font-style:normal;font-variant:normal;font-weight:normal;font-stretch:normal;font-size:10.63729382px;line-height:1.25;font-family:'VCR OSD Mono';-inkscape-font-specification:'VCR OSD Mono';letter-spacing:0px;word-spacing:0px;fill:#e6e6e6;fill-opacity:1;stroke:#000000;stroke-width:0.26593232;stroke-opacity:1"
       id="text5686">
      <path
         d="m 29.376677,36.474347 v 2.077597 h 2.596995 v -0.519399 h 0.5194 v -1.038799 h -0.5194 v -0.519399 z m 0,3.116395 v 3.116395 h -1.038798 v -7.271588 h 4.155193 v 0.519399 h 0.519399 v 0.519399 h 0.519399 v 2.077597 h -0.519399 v 0.519399 h -0.519399 v 0.519399 z"
         style="font-style:normal;font-variant:normal;font-weight:normal;font-stretch:normal;font-family:'VCR OSD Mono';-inkscape-font-specification:'VCR OSD Mono';fill:#e6e6e6;stroke:#000000;stroke-width:0.26593232;stroke-opacity:1"
         id="path5162"
         inkscape:connector-curvature="0" />
      <path
         d="m 37.687063,35.435549 v 7.271588 h -1.038798 v -7.271588 z"
         style="font-style:normal;font-variant:normal;font-weight:normal;font-stretch:normal;font-family:'VCR OSD Mono';-inkscape-font-specification:'VCR OSD Mono';fill:#e6e6e6;stroke:#000000;stroke-width:0.26593232;stroke-opacity:1"
         id="path5164"
         inkscape:connector-curvature="0" />
      <path
         d="m 42.361655,41.668338 h 2.077596 v -0.519399 h 0.5194 v -1.038798 h -0.5194 v -0.519399 h -2.077596 v 0.519399 h -0.519399 v 1.038798 h 0.519399 z m -0.519399,1.038799 v -0.519399 h -0.519399 v -0.5194 h -0.519399 v -2.077596 h 0.519399 v -0.519399 h 0.519399 v -0.519399 h 2.596995 v 0.519399 h 0.5194 v -1.038798 h -0.5194 v -0.519399 h -2.596995 v -1.038799 h 3.116395 v 0.519399 h 0.519399 v 0.5194 h 0.519399 v 5.193991 h -1.038798 v -0.519399 h -0.5194 v 0.519399 z"
         style="font-style:normal;font-variant:normal;font-weight:normal;font-stretch:normal;font-family:'VCR OSD Mono';-inkscape-font-specification:'VCR OSD Mono';fill:#e6e6e6;stroke:#000000;stroke-width:0.26593232;stroke-opacity:1"
         id="path5166"
         inkscape:connector-curvature="0" />
      <path
         d="m 48.075045,42.707137 v -1.038799 h 2.596996 v -0.519399 h 0.519399 v -1.558197 h -0.519399 v 0.519399 h -0.5194 v 0.519399 h -2.077596 v -0.519399 h -0.519399 v -0.519399 h -0.519399 v -3.116395 h 1.038798 v 2.596996 h 0.519399 v 0.519399 h 1.038798 v -0.519399 h 0.519399 v -0.519399 h 0.5194 v -1.038798 h 0.519399 v -1.038799 h 1.038798 v 5.193991 h -0.519399 v 0.5194 H 51.19144 v 0.519399 z"
         style="font-style:normal;font-variant:normal;font-weight:normal;font-stretch:normal;font-family:'VCR OSD Mono';-inkscape-font-specification:'VCR OSD Mono';fill:#e6e6e6;stroke:#000000;stroke-width:0.26593232;stroke-opacity:1"
         id="path5168"
         inkscape:connector-curvature="0" />
      <path
         d="m 54.307835,38.551944 v 0.519399 h 3.116395 v -0.519399 h -0.519399 v -0.519399 h -2.077597 v 0.519399 z m 4.155193,2.596995 v 0.519399 h -0.519399 v 0.5194 H 57.42423 v 0.519399 h -3.116395 v -0.519399 h -0.519399 v -0.5194 h -0.519399 v -3.635793 h 0.519399 v -0.519399 h 0.519399 v -0.5194 h 3.116395 v 0.5194 h 0.519399 v 0.519399 h 0.519399 v 1.558197 h -0.519399 v 0.519399 h -3.635794 v 1.038798 h 0.519399 v 0.519399 h 2.077597 v -0.519399 z"
         style="font-style:normal;font-variant:normal;font-weight:normal;font-stretch:normal;font-family:'VCR OSD Mono';-inkscape-font-specification:'VCR OSD Mono';fill:#e6e6e6;stroke:#000000;stroke-width:0.26593232;stroke-opacity:1"
         id="path5170"
         inkscape:connector-curvature="0" />
      <path
         d="m 60.540625,39.590742 v 3.116395 h -1.038798 v -5.713391 h 1.038798 v 1.038799 h 0.519399 v -0.519399 h 0.519399 v -0.5194 h 2.077597 v 0.5194 h 0.519399 v 0.519399 h 0.519399 v 1.038798 H 63.65702 v -0.519399 h -0.5194 v -0.519399 h -1.038798 v 0.519399 h -0.519399 v 0.519399 h -0.519399 v 0.519399 z"
         style="font-style:normal;font-variant:normal;font-weight:normal;font-stretch:normal;font-family:'VCR OSD Mono';-inkscape-font-specification:'VCR OSD Mono';fill:#e6e6e6;stroke:#000000;stroke-width:0.26593232;stroke-opacity:1"
         id="path5172"
         inkscape:connector-curvature="0" />
    </g>
  </g>
</svg>
